<svg xmlns="http://www.w3.org/2000/svg" width="1024" height="1024" viewBox="0 0 1024 1024">
<g>
<path d="M 649.47 216.47 C639.65,219.02 631.47,217.97 622.01,212.92 C614.54,208.94 606.70,200.74 603.21,193.25 C600.89,188.28 600.52,186.21 600.52,178.00 C600.52,169.28 600.80,167.90 603.92,161.21 C615.78,135.85 647.20,129.40 667.54,148.15 C677.58,157.40 682.06,169.30 680.07,181.46 C677.09,199.73 666.29,212.09 649.47,216.47 ZM 396.20 216.89 C378.65,220.56 360.74,211.23 352.69,194.24 C349.76,188.06 349.50,186.67 349.50,177.50 C349.50,168.33 349.76,166.94 352.69,160.76 C356.59,152.54 363.62,145.26 371.02,141.79 C377.81,138.61 389.59,136.57 395.82,137.49 C405.82,138.96 418.82,148.46 424.61,158.50 C427.19,162.99 427.52,164.60 427.85,174.21 C428.15,182.99 427.84,186.18 426.10,191.89 C422.31,204.37 411.04,213.80 396.20,216.89 Z" fill="rgb(134,237,245)"/>
<path d="M 81.28 840.65 C77.32,842.31 75.57,842.29 70.66,840.54 C62.68,837.70 59.06,831.93 53.58,813.36 C46.89,790.70 37.79,753.41 34.42,734.82 C23.59,675.06 21.61,652.32 22.28,594.96 C22.71,558.10 23.05,551.23 25.35,533.00 C32.63,475.46 42.92,440.54 65.05,398.20 C76.12,377.04 83.53,366.87 101.72,347.93 C124.95,323.72 141.98,312.58 175.09,299.93 C182.47,297.12 188.58,294.74 188.67,294.65 C188.76,294.57 190.23,284.49 191.94,272.26 C199.35,219.22 217.54,181.77 253.93,144.68 C292.43,105.42 341.84,77.24 401.33,60.59 C415.31,56.68 434.33,52.47 444.50,51.04 C448.35,50.50 456.00,49.32 461.50,48.42 C474.96,46.23 533.80,45.26 551.79,46.94 C624.68,53.71 680.03,72.39 732.00,107.76 C749.54,119.69 762.42,130.57 777.50,146.17 C790.85,159.98 797.15,168.08 808.12,185.50 C822.47,208.29 833.76,241.01 837.04,269.35 C838.19,279.18 839.78,289.41 840.62,292.26 C841.27,294.47 845.16,296.50 853.78,299.15 C863.28,302.06 884.14,312.62 894.69,319.84 C936.61,348.56 965.87,389.75 985.01,447.00 C994.99,476.84 1000.41,503.03 1004.16,539.51 C1005.90,556.44 1005.92,644.87 1004.19,664.00 C1000.82,701.10 994.49,737.24 984.03,779.00 C976.66,808.39 971.63,825.84 969.07,830.86 C966.59,835.73 962.05,839.61 957.08,841.09 C949.52,843.36 938.29,837.00 936.38,829.38 C935.20,824.67 936.83,814.62 940.83,801.98 C954.45,758.88 964.82,704.80 971.07,644.24 C972.97,625.82 973.19,619.37 972.70,595.74 C971.56,540.36 963.29,490.00 948.77,450.00 C943.28,434.87 929.85,408.01 921.54,395.56 C898.86,361.55 876.45,344.71 833.00,329.01 C805.74,319.16 805.35,318.71 804.40,296.15 C801.77,233.74 776.96,186.54 725.00,145.11 C692.22,118.98 631.10,93.51 582.00,85.51 C556.50,81.36 500.87,79.56 474.50,82.03 C398.78,89.13 324.00,122.03 279.97,167.63 C244.56,204.31 227.03,243.75 225.37,290.50 C224.77,307.08 223.26,314.35 219.45,318.87 C217.00,321.79 205.94,326.69 191.00,331.49 C181.53,334.53 163.05,343.76 152.83,350.56 C140.49,358.78 122.14,376.34 112.46,389.18 C90.98,417.70 77.47,449.97 66.48,499.04 C59.17,531.66 57.91,543.85 57.31,587.50 C56.66,635.14 57.80,656.24 63.07,694.00 C67.04,722.48 79.72,777.23 88.43,803.50 C92.16,814.74 94.29,824.69 93.59,827.50 C92.70,831.03 85.26,838.97 81.28,840.65 ZM 778.30 979.22 C776.97,980.69 775.03,981.00 766.97,981.00 L 757.25 981.00 L 753.00 976.39 L 748.75 971.77 L 749.27 965.14 C749.59,961.06 752.54,949.45 756.93,935.00 C771.11,888.30 776.28,865.25 784.43,812.50 C791.76,764.98 793.23,721.78 789.92,650.00 C788.41,617.18 784.55,586.86 776.50,544.50 C768.35,501.66 766.54,494.07 757.40,464.67 C743.39,419.64 728.54,383.38 710.00,349.00 C686.81,305.99 686.29,304.60 690.47,297.47 C694.49,290.60 697.96,288.83 706.66,289.21 C715.09,289.59 716.08,290.27 722.96,300.50 C764.17,361.76 800.96,465.31 815.90,562.07 C832.41,669.01 830.28,771.94 809.46,873.00 C799.95,919.15 784.26,972.63 778.30,979.22 ZM 282.28 977.11 L 278.77 981.00 L 268.56 981.00 C256.13,981.00 255.83,980.76 250.73,967.00 C233.91,921.59 216.87,847.88 212.01,799.50 C211.40,793.45 210.50,785.58 210.00,782.00 C206.56,757.09 206.18,658.20 209.40,625.00 C210.23,616.47 211.37,604.55 211.95,598.50 C215.22,564.04 223.73,517.98 233.74,480.50 C235.64,473.35 237.44,466.60 237.72,465.50 C240.15,456.00 251.20,421.85 256.81,406.50 C265.75,382.06 272.69,366.27 285.37,341.50 C299.66,313.59 306.72,301.52 312.35,295.33 L 317.20 290.00 L 324.57 290.00 C331.40,290.00 332.19,290.23 335.52,293.15 C337.49,294.88 339.74,297.53 340.52,299.03 C342.70,303.25 340.88,311.91 335.69,322.00 C333.29,326.67 326.11,340.62 319.74,353.00 C306.20,379.29 294.35,405.71 287.12,425.76 C265.68,485.14 248.79,566.84 242.83,640.00 C241.21,659.75 241.20,722.67 242.79,747.00 C245.26,784.53 249.93,820.95 256.13,851.00 C262.65,882.59 272.60,920.05 281.50,946.50 C288.38,966.95 288.46,970.27 282.28,977.11 ZM 464.40 980.40 C463.54,980.73 458.69,981.00 453.63,981.00 L 444.42 981.00 L 436.28 972.50 L 435.06 937.50 C434.38,918.25 433.43,898.00 432.93,892.50 C432.44,887.00 431.36,873.50 430.52,862.50 C428.93,841.49 426.22,814.99 423.00,789.00 C421.95,780.47 420.60,768.10 420.01,761.50 C419.42,754.90 418.51,746.35 417.98,742.50 C417.45,738.65 416.55,730.78 415.98,725.00 C415.41,719.22 414.51,710.67 413.98,706.00 C413.44,701.33 412.33,689.62 411.50,680.00 C410.67,670.38 409.34,654.85 408.53,645.50 C404.09,594.08 403.86,498.32 408.07,454.00 C412.67,405.58 413.82,397.11 422.05,351.00 C424.57,336.93 431.53,308.40 434.19,301.23 C437.71,291.80 443.55,287.00 451.52,287.00 C458.30,287.00 464.85,292.43 467.09,299.91 C467.24,300.41 467.38,300.84 467.48,301.27 C468.20,304.27 467.46,307.62 460.51,339.11 L 459.98 341.50 C446.95,400.50 440.47,457.53 439.34,523.00 C438.62,564.07 440.96,625.24 444.62,661.50 C449.72,712.07 457.44,784.41 458.97,796.00 C460.20,805.32 464.56,850.04 465.94,867.50 C469.36,910.88 470.09,924.08 470.28,947.00 C470.50,971.96 470.45,972.58 468.23,976.15 C466.98,978.16 465.26,980.07 464.40,980.40 ZM 594.19 978.25 C591.74,980.88 591.21,981.00 581.99,981.00 C573.26,981.00 572.16,980.79 570.33,978.75 C565.20,973.03 565.00,972.24 565.02,958.03 C565.06,939.40 566.76,898.51 567.98,887.00 C568.53,881.78 569.45,869.56 570.01,859.86 C570.57,850.16 572.62,828.33 574.55,811.36 C576.48,794.39 578.50,775.10 579.03,768.50 C579.56,761.90 580.42,753.80 580.95,750.50 C581.47,747.20 582.39,738.88 582.99,732.00 C583.59,725.12 584.93,711.17 585.96,701.00 C586.99,690.83 588.35,675.53 588.98,667.00 C589.61,658.47 590.57,648.12 591.12,644.00 C592.77,631.61 593.84,579.38 593.45,531.00 C592.99,474.48 591.89,459.03 584.44,404.00 C583.03,393.62 577.88,365.25 576.00,357.50 C570.23,333.78 564.68,308.39 564.25,303.75 L 563.72 297.99 L 568.63 293.09 C574.07,287.65 578.00,286.32 585.44,287.44 C594.16,288.75 597.31,293.72 602.54,314.50 C606.99,332.17 613.79,366.01 616.00,381.50 C618.28,397.51 623.90,441.25 624.91,451.00 C627.14,472.31 628.22,523.17 627.55,574.50 C626.82,629.90 626.24,642.66 623.04,674.50 C621.88,686.05 620.28,702.47 619.50,711.00 C618.71,719.53 617.39,733.03 616.55,741.00 C615.72,748.97 614.13,764.50 613.03,775.50 C611.92,786.50 610.34,802.25 609.51,810.50 C604.70,858.36 601.55,903.58 600.11,945.58 C599.21,971.80 598.97,973.12 594.19,978.25 Z" fill="rgb(169,34,223)"/>
</g>
</svg>